# File created by Blade
# Date/Time:  Wed Jan 21 17:41:14 2015
# Frame Rate: 120.000 fps
#------------------------------------------------------
:FULLY-SPECIFIED
:DEGREES
1196
root 14.520696 31.591017 -21.529500 -368.726178 86.978830 -454.308983
Spine 62.245389 5.231737 -1.916174
Head -24.255199 2.528274 5.665722
LeftShoulder -5.359869 -45.648893 36.541414
LeftArm 63.437894 -22.119919 -3.551616
LeftForeArm -15.662021 -0.000000 -5.026713
LeftHand 4.511330 -0.000000 50.143615
LeftHandThumb1 -26.253704 0.000000 33.147579
RightShoulder 1.975819 12.772283 -31.314528
RightArm 49.099240 56.491737 12.286934
RightForeArm -11.080298 0.000000 12.692376
RightHand -3.466260 -0.000000 -63.915328
RightHandThumb1 -24.326973 -0.000000 -32.862282
LeftUpLeg -56.941126 -1.534846 0.112110
LeftLeg 3.347308 -0.000000 -0.000000
LeftFoot -44.720090 23.025828 -17.259177
LeftToeBase 19.190549 -0.000000 -0.000000
RightUpLeg -56.693047 3.921201 1.658590
RightLeg -0.481904 -0.000000 0.000000
RightFoot -43.881436 -21.432685 20.232982
RightToeBase 22.185188 -0.000000 -0.000000
1197
root 14.440278 31.570904 -21.562882 -374.481504 87.003860 -460.038746
Spine 62.161216 5.100871 -1.634915
Head -24.377567 2.443027 5.659940
LeftShoulder -5.345102 -45.820121 36.592473
LeftArm 63.275900 -21.907735 -3.295672
LeftForeArm -15.817601 0.000000 -4.798181
LeftHand 4.420109 -0.000000 50.072066
LeftHandThumb1 -26.253704 0.000000 33.147579
RightShoulder 1.980043 12.910155 -31.463532
RightArm 48.505681 56.240512 11.848864
RightForeArm -11.042940 -0.000000 12.476484
RightHand -3.433994 -0.000000 -63.527015
RightHandThumb1 -24.326973 -0.000000 -32.862282
LeftUpLeg -57.051834 -1.728376 0.409190
LeftLeg 3.301675 -0.000000 -0.000000
LeftFoot -45.308323 23.233988 -17.290567
LeftToeBase 19.708527 -0.000000 -0.000000
RightUpLeg -56.559915 3.760755 1.889639
RightLeg -0.661820 -0.000000 0.000000
RightFoot -43.974614 -21.209378 20.204544
RightToeBase 22.381565 -0.000000 -0.000000
1198
root 14.345855 31.568589 -21.596000 -378.784205 86.966845 -464.482803
Spine 61.969561 5.228040 -1.227873
Head -24.688717 2.277083 5.957372
LeftShoulder -5.290982 -46.029351 36.744657
LeftArm 63.468484 -21.935325 -3.432730
LeftForeArm -15.853218 0.000000 -4.925986
LeftHand 4.466897 -0.000000 49.903351
LeftHandThumb1 -26.253704 0.000000 33.147579
RightShoulder 1.710568 12.699723 -31.486754
RightArm 47.946095 56.241452 11.251166
RightForeArm -10.894876 -0.000000 12.167081
RightHand -3.379113 -0.000000 -62.895813
RightHandThumb1 -24.326973 -0.000000 -32.862282
LeftUpLeg -57.396267 -1.841656 0.629441
LeftLeg 3.337780 -0.000000 -0.000000
LeftFoot -45.805889 23.424448 -17.251945
LeftToeBase 20.255990 -0.000000 -0.000000
RightUpLeg -56.748295 3.731157 1.915515
RightLeg -0.589340 -0.000000 0.000000
RightFoot -44.023811 -21.110005 20.131532
RightToeBase 22.617309 -0.000000 -0.000000
1199
root 14.254672 31.580320 -21.626065 -381.862232 86.913710 -467.716648
Spine 61.708467 5.165217 -1.184512
Head -24.938449 2.330205 5.934277
LeftShoulder -5.279994 -46.157316 36.894768
LeftArm 63.457343 -21.891535 -3.299341
LeftForeArm -15.888870 -0.000000 -5.170755
LeftHand 4.559479 -0.000000 49.585968
LeftHandThumb1 -26.253704 0.000000 33.147579
RightShoulder 1.820786 12.911037 -31.583669
RightArm 47.609295 56.141510 11.028197
RightForeArm -10.959732 -0.000000 11.770467
RightHand -3.262712 -0.000000 -62.399702
RightHandThumb1 -24.326973 -0.000000 -32.862282
LeftUpLeg -57.752496 -1.946110 0.840557
LeftLeg 3.381641 -0.000000 -0.000000
LeftFoot -46.155925 23.626738 -17.258842
LeftToeBase 20.587538 -0.000000 -0.000000
RightUpLeg -57.007740 3.768325 1.823334
RightLeg -0.423409 -0.000000 0.000000
RightFoot -43.980438 -21.001769 20.133820
RightToeBase 22.594858 -0.000000 -0.000000
1200
root 14.172928 31.598973 -21.660177 -384.914624 86.870669 -470.849591
Spine 61.670360 5.115818 -1.034011
Head -25.415892 2.336461 5.943139
LeftShoulder -5.292101 -46.305479 37.064514
LeftArm 63.505791 -22.065926 -3.310849
LeftForeArm -15.855519 0.000000 -5.474929
LeftHand 4.551354 -0.000000 49.201193
LeftHandThumb1 -26.253704 0.000000 33.147579
RightShoulder 1.759511 13.086808 -31.776898
RightArm 47.462112 56.265313 11.076879
RightForeArm -11.144152 -0.000000 11.413515
RightHand -3.127650 -0.000000 -61.803821
RightHandThumb1 -24.326973 -0.000000 -32.862282
LeftUpLeg -58.021588 -2.025323 0.961770
LeftLeg 3.436573 -0.000000 -0.000000
LeftFoot -46.377056 23.721283 -17.268424
LeftToeBase 20.834890 -0.000000 -0.000000
RightUpLeg -57.117423 3.774528 1.735396
RightLeg -0.429166 -0.000000 0.000000
RightFoot -43.826776 -21.088713 20.051149
RightToeBase 22.330912 -0.000000 -0.000000
1201
root 14.073876 31.638519 -21.692895 -386.216033 86.769259 -472.437484
Spine 61.349869 5.175732 -1.015781
Head -25.765483 2.403453 6.081991
LeftShoulder -5.221815 -46.451786 37.271476
LeftArm 63.550916 -22.258910 -3.394220
LeftForeArm -15.763294 -0.000000 -5.855780
LeftHand 4.717829 -0.000000 48.838008
LeftHandThumb1 -26.253704 0.000000 33.147579
RightShoulder 1.780488 13.263964 -31.883488
RightArm 47.334155 56.392939 11.164179
RightForeArm -11.394178 -0.000000 11.097493
RightHand -3.181242 0.000000 -61.150110
RightHandThumb1 -24.326973 -0.000000 -32.862282
LeftUpLeg -58.548004 -1.929816 0.948071
LeftLeg 3.565492 -0.000000 -0.000000
LeftFoot -46.392335 23.641346 -17.093535
LeftToeBase 20.984767 -0.000000 -0.000000
RightUpLeg -57.549913 3.847069 1.588456
RightLeg -0.304685 -0.000000 0.000000
RightFoot -43.550609 -20.920798 20.008191
RightToeBase 22.232612 -0.000000 -0.000000
1202
root 13.998173 31.675636 -21.725763 -387.974362 86.720443 -474.254832
Spine 61.378387 5.233850 -0.962348
Head -26.233699 2.777819 6.173051
LeftShoulder -4.973233 -46.566468 37.466597
LeftArm 63.394927 -22.574677 -3.247795
LeftForeArm -15.816588 -0.000000 -6.262776
LeftHand 4.959051 -0.000000 48.674272
LeftHandThumb1 -26.253704 0.000000 33.147579
RightShoulder 1.902001 13.246284 -31.943658
RightArm 46.864199 56.883796 10.947852
RightForeArm -11.553463 -0.000000 10.856261
RightHand -3.096554 -0.000000 -60.235315
RightHandThumb1 -24.326973 -0.000000 -32.862282
LeftUpLeg -58.744149 -1.969416 1.010477
LeftLeg 3.537403 -0.000000 -0.000000
LeftFoot -46.323560 23.705488 -16.991695
LeftToeBase 21.057220 -0.000000 -0.000000
RightUpLeg -57.629686 3.886454 1.423039
RightLeg -0.447929 -0.000000 0.000000
RightFoot -43.210140 -20.936879 19.942457
RightToeBase 22.223601 -0.000000 -0.000000
1203
root 13.930536 31.719211 -21.771865 -389.429493 86.710197 -475.762915
Spine 61.513154 5.119494 -0.981169
Head -26.862297 2.969086 6.145690
LeftShoulder -4.991714 -46.700381 37.732508
LeftArm 63.268004 -23.022188 -3.377062
LeftForeArm -15.499763 -0.000000 -6.505605
LeftHand 5.035185 -0.000000 48.268808
LeftHandThumb1 -26.253704 0.000000 33.147579
RightShoulder 1.862579 13.497578 -32.167471
RightArm 47.227750 57.385642 11.570610
RightForeArm -12.073868 -0.000000 10.448019
RightHand -2.861669 0.000000 -59.369174
RightHandThumb1 -24.326973 -0.000000 -32.862282
LeftUpLeg -58.919897 -1.991187 0.939774
LeftLeg 3.501389 -0.000000 -0.000000
LeftFoot -46.111131 23.603637 -16.886015
LeftToeBase 21.060791 -0.000000 -0.000000
RightUpLeg -57.673060 3.821743 1.294733
RightLeg -0.682691 -0.000000 0.000000
RightFoot -42.803382 -20.828997 19.876514
RightToeBase 22.074286 -0.000000 -0.000000
1204
root 13.849787 31.773422 -21.804759 -391.288202 86.641929 -477.827293
Spine 61.388454 5.085136 -0.981799
Head -27.199682 2.927585 6.312460
LeftShoulder -4.856526 -46.881404 37.963828
LeftArm 62.997602 -23.253001 -3.290969
LeftForeArm -15.276754 -0.000000 -6.681427
LeftHand 5.098016 -0.000000 47.985659
LeftHandThumb1 -26.253704 0.000000 33.147579
RightShoulder 1.989337 13.799020 -32.269393
RightArm 46.961300 57.640138 11.576106
RightForeArm -12.436669 -0.000000 10.267368
RightHand -2.832454 -0.000000 -58.606361
RightHandThumb1 -24.326973 -0.000000 -32.862282
LeftUpLeg -59.295861 -1.988729 1.008562
LeftLeg 3.495814 -0.000000 -0.000000
LeftFoot -45.873382 23.594869 -16.713181
LeftToeBase 21.098840 -0.000000 -0.000000
RightUpLeg -57.915604 3.844273 1.181033
RightLeg -0.879508 -0.000000 0.000000
RightFoot -42.402313 -20.812088 19.840156
RightToeBase 22.190431 -0.000000 -0.000000
1205
root 13.773885 31.831728 -21.834153 -392.202371 86.552544 -478.919785
Spine 61.338350 5.128737 -1.020743
Head -27.600703 3.077934 6.520999
LeftShoulder -4.741985 -46.965155 38.263678
LeftArm 62.609841 -23.538564 -3.032066
LeftForeArm -15.263281 -0.000000 -6.803825
LeftHand 5.137171 -0.000000 47.595302
LeftHandThumb1 -26.253704 0.000000 33.147579
RightShoulder 2.036974 13.919653 -32.326474
RightArm 47.046687 58.197396 11.873938
RightForeArm -13.053996 -0.000000 10.132964
RightHand -3.022324 -0.000000 -57.601636
RightHandThumb1 -24.326973 -0.000000 -32.862282
LeftUpLeg -59.601210 -1.939474 1.063129
LeftLeg 3.420243 -0.000000 -0.000000
LeftFoot -45.570238 23.571020 -16.526810
LeftToeBase 21.085365 -0.000000 -0.000000
RightUpLeg -58.128247 3.884169 1.096460
RightLeg -1.082890 -0.000000 0.000000
RightFoot -41.923224 -20.682169 19.923134
RightToeBase 21.882403 -0.000000 -0.000000
1206
root 13.694951 31.891866 -21.864851 -394.056301 86.491008 -480.995620
Spine 61.246565 5.080108 -1.027899
Head -27.964358 3.174503 6.768488
LeftShoulder -4.731340 -47.017275 38.592533
LeftArm 62.213971 -23.721817 -2.619970
LeftForeArm -15.364826 -0.000000 -6.949329
LeftHand 5.101441 0.000000 47.188691
LeftHandThumb1 -26.253704 0.000000 33.147579
RightShoulder 2.005930 14.108421 -32.368972
RightArm 47.493584 58.743172 12.489657
RightForeArm -13.976280 -0.000000 9.952502
RightHand -3.045674 -0.000000 -56.573802
RightHandThumb1 -24.326973 -0.000000 -32.862282
LeftUpLeg -59.963714 -1.984559 1.212783
LeftLeg 3.339661 -0.000000 -0.000000
LeftFoot -45.280831 23.596619 -16.419792
LeftToeBase 21.126499 -0.000000 -0.000000
RightUpLeg -58.381262 3.861794 1.065654
RightLeg -1.288235 -0.000000 0.000000
RightFoot -41.435936 -20.759164 19.873717
RightToeBase 21.874657 -0.000000 -0.000000
1207
root 13.625725 31.950188 -21.900148 -394.850858 86.464533 -481.952713
Spine 61.219842 5.057301 -1.126351
Head -28.209614 3.401084 7.028205
LeftShoulder -4.690749 -47.051102 38.967383
LeftArm 61.787284 -23.943727 -2.240307
LeftForeArm -15.317981 -0.000000 -7.110708
LeftHand 4.975831 -0.000000 46.713108
LeftHandThumb1 -26.253704 0.000000 33.147579
RightShoulder 2.011764 14.438662 -32.336691
RightArm 47.842156 59.167809 12.973668
RightForeArm -14.723070 -0.000000 9.863732
RightHand -2.825775 -0.000000 -55.585628
RightHandThumb1 -24.326973 -0.000000 -32.862282
LeftUpLeg -60.200719 -2.039550 1.316742
LeftLeg 3.205849 -0.000000 -0.000000
LeftFoot -44.912619 23.488555 -16.335855
LeftToeBase 21.143779 -0.000000 -0.000000
RightUpLeg -58.572197 3.724936 1.128265
RightLeg -1.437327 -0.000000 0.000000
RightFoot -40.863438 -20.548061 19.782457
RightToeBase 21.576691 -0.000000 -0.000000
1208
root 13.550312 32.011124 -21.930005 -395.406223 86.392441 -482.737248
Spine 61.116052 5.074022 -1.221527
Head -28.478044 3.587314 7.302301
LeftShoulder -4.761988 -46.927272 39.398960
LeftArm 61.314470 -24.119645 -1.635021
LeftForeArm -15.619253 -0.000000 -7.271654
LeftHand 4.826459 0.000000 46.175731
LeftHandThumb1 -26.253704 0.000000 33.147579
RightShoulder 1.972897 14.815939 -32.274102
RightArm 48.447712 59.645022 13.777812
RightForeArm -15.646135 0.000000 10.069651
RightHand -2.990143 -0.000000 -54.578567
RightHandThumb1 -24.326973 -0.000000 -32.862282
LeftUpLeg -60.551361 -2.044225 1.446588
LeftLeg 3.161035 -0.000000 -0.000000
LeftFoot -44.601912 23.368586 -16.300128
LeftToeBase 20.961733 -0.000000 -0.000000
RightUpLeg -58.838145 3.633663 1.237386
RightLeg -1.601305 -0.000000 0.000000
RightFoot -40.295554 -20.281889 19.816386
RightToeBase 21.358524 -0.000000 -0.000000
